<?xml version="1.0" encoding="utf-8"?>
<!-- Generator: Adobe Illustrator 24.2.3, SVG Export Plug-In . SVG Version: 6.00 Build 0)  -->
<svg version="1.1" id="レイヤー_1" xmlns="http://www.w3.org/2000/svg" xmlns:xlink="http://www.w3.org/1999/xlink" x="0px"
	 y="0px" viewBox="0 0 300 300" style="enable-background:new 0 0 300 300;" xml:space="preserve">
<style type="text/css">
	.st0{fill-rule:evenodd;clip-rule:evenodd;fill:#0D97FF;}
</style>
<g>
	<path class="st0" d="M249,99c0-2.2-1.8-4-4-4H144c-2.2,0-4,1.8-4,4v57c0,2.2,1.8,4,4,4h101c2.2,0,4-1.8,4-4V99z M114,65
		c-2.2,0-4,1.8-4,4v117c0,2.2,1.8,4,4,4h161c2.2,0,4-1.8,4-4V69c0-2.2-1.8-4-4-4H114z"/>
	<path class="st0" d="M91,148c2.2,0,4-1.8,4-4v-22c0-2.2-1.8-4-4-4H30c-2.2,0-4,1.8-4,4v117c0,2.2,1.8,4,4,4h161c2.2,0,4-1.8,4-4
		v-30c0-2.2-1.8-4-4-4h-22c-2.2,0-4,1.8-4,4v2c0,1.1-0.9,2-2,2H58c-1.1,0-2-0.9-2-2v-61c0-1.1,0.9-2,2-2H91z"/>
</g>
</svg>
