<?xml version="1.0" encoding="utf-8"?>
<!-- Generator: Adobe Illustrator 24.3.0, SVG Export Plug-In . SVG Version: 6.00 Build 0)  -->
<svg version="1.1" id="レイヤー_1" xmlns="http://www.w3.org/2000/svg" xmlns:xlink="http://www.w3.org/1999/xlink" x="0px"
	 y="0px" viewBox="0 0 51 50" style="enable-background:new 0 0 51 50;" xml:space="preserve">
<style type="text/css">
	.st0{fill:none;stroke:#808084;stroke-width:0.9558;}
	.st1{fill-rule:evenodd;clip-rule:evenodd;fill:#808084;}
	.st2{fill:#808084;}
</style>
<path class="st0" d="M9.3,12.5h33.3c1.6,0,2.9,1.3,2.9,2.9v19.2c0,1.6-1.3,2.9-2.9,2.9H9.3c-1.6,0-2.9-1.3-2.9-2.9V15.3
	C6.4,13.7,7.7,12.5,9.3,12.5z"/>
<path class="st1" d="M42.2,31.7c0-1.4-1.1-2.5-2.5-2.5c-1.4,0-2.5,1.1-2.5,2.5c0,1.4,1.1,2.5,2.5,2.5C41.1,34.2,42.2,33.1,42.2,31.7
	z M33.9,31.7c0-1.4-1.1-2.5-2.5-2.5c-1.4,0-2.5,1.1-2.5,2.5c0,1.4,1.1,2.5,2.5,2.5C32.8,34.2,33.9,33.1,33.9,31.7z"/>
<rect x="6.9" y="18" class="st2" width="38.2" height="1.8"/>
</svg>
