<svg width="30" height="30" viewBox="0 0 30 30" fill="none" xmlns="http://www.w3.org/2000/svg">
<path d="M15 2.90039C18.9434 2.90039 19.4062 2.91797 20.9648 2.98828C22.4062 3.05273 23.1855 3.29297 23.707 3.49805C24.3984 3.76758 24.8906 4.08398 25.4062 4.59961C25.9219 5.11523 26.2441 5.60742 26.5078 6.29883C26.707 6.82031 26.9531 7.59961 27.0176 9.04102C27.0879 10.5996 27.1055 11.0625 27.1055 15.0059C27.1055 18.9492 27.0879 19.4121 27.0176 20.9707C26.9531 22.4121 26.7129 23.1914 26.5078 23.7129C26.2383 24.4043 25.9219 24.8965 25.4062 25.4121C24.8906 25.9277 24.3984 26.25 23.707 26.5137C23.1855 26.7129 22.4062 26.959 20.9648 27.0234C19.4062 27.0938 18.9434 27.1113 15 27.1113C11.0566 27.1113 10.5937 27.0938 9.03516 27.0234C7.59375 26.959 6.81445 26.7188 6.29297 26.5137C5.60156 26.2441 5.10938 25.9277 4.59375 25.4121C4.07813 24.8965 3.75586 24.4043 3.49219 23.7129C3.29297 23.1914 3.04688 22.4121 2.98242 20.9707C2.91211 19.4121 2.89453 18.9492 2.89453 15.0059C2.89453 11.0625 2.91211 10.5996 2.98242 9.04102C3.04688 7.59961 3.28711 6.82031 3.49219 6.29883C3.76172 5.60742 4.07813 5.11523 4.59375 4.59961C5.10938 4.08398 5.60156 3.76172 6.29297 3.49805C6.81445 3.29883 7.59375 3.05273 9.03516 2.98828C10.5937 2.91211 11.0566 2.90039 15 2.90039ZM15 0.240234C10.9922 0.240234 10.4883 0.257812 8.91211 0.328125C7.3418 0.398438 6.26953 0.650391 5.33203 1.01367C4.35938 1.38867 3.53906 1.89844 2.71875 2.71875C1.89844 3.53906 1.39453 4.36523 1.01367 5.33203C0.650391 6.26953 0.398438 7.3418 0.328125 8.91797C0.257812 10.4883 0.240234 10.9922 0.240234 15C0.240234 19.0078 0.257812 19.5117 0.328125 21.0879C0.398438 22.6582 0.650391 23.7305 1.01367 24.6738C1.38867 25.6465 1.89844 26.4668 2.71875 27.2871C3.53906 28.1074 4.36523 28.6113 5.33203 28.9922C6.26953 29.3555 7.3418 29.6074 8.91797 29.6777C10.4941 29.748 10.9922 29.7656 15.0059 29.7656C19.0195 29.7656 19.5176 29.748 21.0938 29.6777C22.6641 29.6074 23.7363 29.3555 24.6797 28.9922C25.6523 28.6172 26.4727 28.1074 27.293 27.2871C28.1133 26.4668 28.6172 25.6406 28.998 24.6738C29.3613 23.7363 29.6133 22.6641 29.6836 21.0879C29.7539 19.5117 29.7715 19.0137 29.7715 15C29.7715 10.9863 29.7539 10.4883 29.6836 8.91211C29.6133 7.3418 29.3613 6.26953 28.998 5.32617C28.623 4.35352 28.1133 3.5332 27.293 2.71289C26.4727 1.89258 25.6465 1.38867 24.6797 1.00781C23.7422 0.644531 22.6699 0.392578 21.0938 0.322266C19.5117 0.257813 19.0078 0.240234 15 0.240234Z" fill="#26262A"/>
<path d="M15 7.41797C10.8164 7.41797 7.41797 10.8105 7.41797 15C7.41797 19.1895 10.8164 22.582 15 22.582C19.1836 22.582 22.582 19.1836 22.582 15C22.582 10.8164 19.1836 7.41797 15 7.41797ZM15 19.9219C12.2812 19.9219 10.0781 17.7188 10.0781 15C10.0781 12.2812 12.2812 10.0781 15 10.0781C17.7188 10.0781 19.9219 12.2812 19.9219 15C19.9219 17.7188 17.7188 19.9219 15 19.9219Z" fill="#26262A"/>
<path d="M22.8809 8.88879C23.8581 8.88879 24.6504 8.09655 24.6504 7.11926C24.6504 6.14198 23.8581 5.34973 22.8809 5.34973C21.9036 5.34973 21.1113 6.14198 21.1113 7.11926C21.1113 8.09655 21.9036 8.88879 22.8809 8.88879Z" fill="#26262A"/>
</svg>
