<svg width="230" height="73" viewBox="0 0 230 73" fill="none" xmlns="http://www.w3.org/2000/svg">
<path fill-rule="evenodd" clip-rule="evenodd" d="M45.4753 31.2567C48.4618 31.2567 50.8828 28.8509 50.8828 25.8831C50.8828 22.9154 48.4618 20.5095 45.4753 20.5095C42.4888 20.5095 40.0678 22.9154 40.0678 25.8831C40.0678 28.8509 42.4888 31.2567 45.4753 31.2567ZM34.0627 20.7847H19.1375V52.0704H34.0627V20.7847ZM54.8618 52.056H43.7845L36.2782 42.0619C35.4911 41.019 35.7098 39.5417 36.7592 38.7595L43.8866 33.4728C44.936 32.6907 46.4227 32.9079 47.2098 33.9508L57.2668 47.3341C58.0539 48.377 57.8352 49.8544 56.7858 50.6365L54.8618 52.056ZM36.73 0C16.4411 0 0 16.3431 0 36.5C0 56.657 16.4411 73 36.73 73C57.019 73 73.4601 56.657 73.4601 36.5C73.4601 16.3431 57.019 0 36.73 0Z" fill="white"/>
<path fill-rule="evenodd" clip-rule="evenodd" d="M167.923 29.4317V31.1843C167.092 30.518 166.174 29.9966 165.212 29.5621C163.725 28.9537 162.151 28.5916 160.533 28.5916C158.872 28.5916 157.297 28.9392 155.811 29.5621C154.412 30.1704 153.1 31.0539 152.007 32.1547C150.913 33.2555 150.039 34.5736 149.427 35.9785C148.815 37.4704 148.509 39.0492 148.509 40.6859C148.509 42.3081 148.815 43.8869 149.427 45.3932C150.039 46.8416 150.913 48.1597 152.007 49.2605C153.1 50.3613 154.412 51.2448 155.811 51.8531C157.297 52.4615 158.872 52.7801 160.533 52.7801C162.151 52.7801 163.725 52.4759 165.212 51.8531C166.174 51.4186 167.092 50.8827 167.923 50.2309V52.0269H173.957V29.4317H167.923ZM160.548 47.3196C156.904 47.3196 153.96 44.3648 153.96 40.7003C153.96 37.0793 156.889 34.1246 160.548 34.1246C164.148 34.1246 167.078 37.0793 167.078 40.7003C167.078 44.3503 164.148 47.3196 160.548 47.3196Z" fill="white"/>
<path fill-rule="evenodd" clip-rule="evenodd" d="M213.107 31.6478V20.7847H206.883V52.0704H213.107V40.99C213.15 37.9918 215.526 35.5585 218.441 35.5585C222.493 35.5585 223.863 37.7745 223.863 41.1204V52.0559H229.956V41.8156C229.956 36.4275 228.659 29.6924 219.243 29.6924C215.526 29.6924 213.15 31.6043 213.107 31.6478ZM199.858 41.4825C199.289 40.5555 198.531 39.8168 197.482 39.194C195.587 38.0932 193.255 37.7021 191.185 37.398C188.853 37.0503 187.002 36.7317 187.002 35.5585C187.002 33.8059 188.984 33.4438 190.355 33.4438C191.506 33.4438 194.188 33.8349 194.188 35.3702H200.047C200.047 34.1825 199.829 32.2995 197.584 30.6194C195.777 29.3013 193.313 28.5916 190.325 28.5916C184.991 28.5916 180.633 31.9374 180.633 36.0654C180.633 38.0932 181.74 39.7154 183.315 40.6424C184.991 41.6998 186.973 42.1777 188.824 42.395C190.763 42.6557 194.377 43.1916 194.377 45.3353C194.377 47.0444 191.87 47.7107 190.588 47.7107C188.649 47.7107 186.667 46.6968 186.667 44.64H180.239C180.239 46.1753 180.633 47.841 182.79 50.0426C183.664 50.9261 184.816 51.5345 186.055 51.969C187.425 52.4904 188.955 52.7656 190.588 52.7656C191.958 52.7656 193.27 52.5484 194.509 52.1573C195.704 51.8097 196.797 51.2738 197.73 50.5785C198.692 49.9123 199.45 49.1301 199.974 48.2466C200.499 47.3196 200.805 46.3636 200.805 45.3498C200.805 44.5531 200.718 43.8579 200.543 43.1916C200.382 42.5833 200.12 42.0039 199.858 41.4825ZM139.588 29.3158L133.904 42.5833L128.176 29.3158H121.486L130.843 51.462C130.843 54.6196 126.602 57.8206 124.182 57.8206V64.4543C127.214 64.4543 132.84 62.7597 137.679 51.4476C140.011 45.9436 146.016 29.3013 146.016 29.3013H139.588V29.3158ZM111.881 52.0559H120.772L107.391 36.0509L120.043 23.6236H112.143L100.541 35.0515V23.638H94.4629V52.0704H100.541V44.0607L103.398 41.0914L111.881 52.0559Z" fill="white"/>
</svg>
