<svg width="230" height="73" viewBox="0 0 230 73" fill="none" xmlns="http://www.w3.org/2000/svg">
<g clip-path="url(#clip0)">
<path fill-rule="evenodd" clip-rule="evenodd" d="M37.022 0C16.7331 0 0.291992 16.3381 0.291992 36.5C0.291992 56.6619 16.7331 73 37.022 73C57.311 73 73.7521 56.6619 73.7521 36.5C73.7521 16.3381 57.311 0 37.022 0Z" fill="#2AD1FF"/>
<path d="M45.7678 31.2567C48.7411 31.2567 51.1898 28.8524 51.1898 25.8976C51.1898 22.9429 48.7703 20.5095 45.7678 20.5095C42.7652 20.5095 40.3457 22.9139 40.3457 25.8976C40.3457 28.8524 42.7944 31.2567 45.7678 31.2567Z" fill="white"/>
<path d="M34.3696 20.7993H19.4443V52.085H34.3696V20.7993V20.7993Z" fill="white"/>
<path fill-rule="evenodd" clip-rule="evenodd" d="M44.0768 52.0559H55.1541L57.078 50.6365C58.1275 49.8544 58.3607 48.377 57.5736 47.3341L47.5166 33.9508C46.7295 32.9079 45.2428 32.7051 44.1934 33.4873L37.0806 38.7595C36.0311 39.5417 35.7979 41.019 36.585 42.0619L44.0768 52.0559Z" fill="white"/>
<path fill-rule="evenodd" clip-rule="evenodd" d="M168.2 29.4318V31.1699C167.384 30.5036 166.451 29.9822 165.489 29.5476C164.003 28.9393 162.428 28.5627 160.825 28.5627C159.164 28.5627 157.589 28.9103 156.103 29.5476C154.704 30.156 153.392 31.025 152.313 32.1258C151.235 33.2266 150.331 34.5592 149.719 35.9496C149.107 37.456 148.815 39.0203 148.815 40.6425C148.815 42.2647 149.107 43.858 149.719 45.3353C150.331 46.7838 151.205 48.1163 152.313 49.2171C153.421 50.3179 154.704 51.1869 156.103 51.7953C157.589 52.4036 159.164 52.7223 160.825 52.7223C162.428 52.7223 164.032 52.4036 165.489 51.7953C166.451 51.3607 167.384 50.8103 168.2 50.173V51.9691H174.235V29.3738H168.2V29.4318ZM160.854 47.3342C157.21 47.3342 154.266 44.3794 154.266 40.7004C154.266 37.0794 157.181 34.1246 160.854 34.1246C164.44 34.1246 167.384 37.0794 167.384 40.7004C167.384 44.3504 164.44 47.3342 160.854 47.3342ZM213.384 31.6334V20.7703H207.175V25.9556V52.056H213.384V40.9901C213.442 37.9774 215.804 35.5441 218.719 35.5441C222.771 35.5441 224.141 37.7457 224.141 41.106V52.056H230.233V47.1893V41.8302C230.233 36.4421 228.951 29.6925 219.506 29.6925C215.804 29.6925 213.442 31.6044 213.384 31.6334ZM200.15 41.4826C199.596 40.5556 198.838 39.8024 197.788 39.1941C195.894 38.0933 193.562 37.6877 191.492 37.398C189.16 37.0504 187.323 36.7318 187.323 35.5441C187.323 33.777 189.306 33.4294 190.676 33.4294C191.842 33.4294 194.524 33.835 194.524 35.3703H200.383C200.383 34.1826 200.15 32.2996 197.905 30.6195C196.098 29.2869 193.649 28.5917 190.646 28.5917C185.312 28.5917 180.968 31.952 180.968 36.0655C180.968 38.0933 182.076 39.7155 183.65 40.6425C185.341 41.6853 187.323 42.1778 189.16 42.4096C191.113 42.6703 194.698 43.2207 194.698 45.3353C194.698 47.0445 192.191 47.7107 190.909 47.7107C188.985 47.7107 186.973 46.6969 186.973 44.6401H180.56C180.56 46.1754 180.968 47.8266 183.126 50.0282C184 50.9262 185.166 51.5056 186.39 51.9401C187.761 52.4615 189.306 52.7512 190.909 52.7512C192.279 52.7512 193.591 52.5195 194.844 52.1429C196.039 51.7953 197.118 51.2449 198.051 50.5786C199.013 49.9123 199.771 49.1302 200.295 48.2322C200.82 47.3052 201.112 46.3492 201.112 45.3353C201.112 44.5242 201.024 43.829 200.849 43.1917C200.674 42.5834 200.412 42.004 200.15 41.4826ZM139.866 29.3159L134.181 42.5834L128.468 29.3159H121.763L131.12 51.4477C131.12 54.6052 126.894 57.8207 124.474 57.8207V64.4544C127.506 64.4544 133.132 62.7453 137.971 51.4477C140.303 45.9437 146.308 29.2869 146.308 29.2869L139.866 29.3159ZM112.172 52.056H121.063L107.683 36.0655L120.335 23.6381H112.435L100.833 35.0516V23.6381H94.7402V52.056H100.833V44.0607L103.69 41.106L112.172 52.056Z" fill="#2AD1FF"/>
</g>
<defs>
<clipPath id="clip0">
<rect width="230" height="73" fill="white"/>
</clipPath>
</defs>
</svg>
