<svg width="50" height="50" viewBox="0 0 50 50" fill="none" xmlns="http://www.w3.org/2000/svg">
<path d="M44.312 46.6667V32.3333C44.312 32.2775 44.3108 32.2219 44.3084 32.1667H45.0003C45.9208 32.1667 46.667 31.4205 46.667 30.5V22.3333C46.667 21.4129 45.9208 20.6667 45.0003 20.6667H30.8337V4.66667C30.8337 3.74619 30.0875 3 29.167 3H9.33366C8.41318 3 7.66699 3.74619 7.66699 4.66667V20.6667H4.83366C3.91318 20.6667 3.16699 21.4129 3.16699 22.3333V30.5C3.16699 31.4205 3.91318 32.1667 4.83366 32.1667H5.52557C5.52319 32.2219 5.52199 32.2775 5.52199 32.3333V46.6667" stroke="#808084" stroke-width="0.956667"/>
<path d="M12.1689 18.1666H18.4884V16.5772H14.2526L17.8192 12.1057C18.2653 11.5379 18.4884 10.889 18.4884 10.1589C18.4782 9.24637 18.1715 8.49351 17.5682 7.90035C16.9751 7.30212 16.2019 6.99793 15.2488 6.98779C14.3971 6.99793 13.6797 7.29705 13.0967 7.88514C12.5188 8.48844 12.2095 9.25144 12.1689 10.1741H13.7507C13.8065 9.66716 13.9839 9.27425 14.283 8.99541C14.572 8.71658 14.9345 8.57716 15.3705 8.57716C15.8623 8.5873 16.2425 8.747 16.5112 9.05625C16.7697 9.36551 16.899 9.72799 16.899 10.1437C16.899 10.3009 16.8787 10.4682 16.8382 10.6456C16.7773 10.8332 16.6633 11.036 16.496 11.254L12.1689 16.6685V18.1666Z" fill="#808084"/>
<path d="M19.4958 16.5164H24.1195V18.1666H25.7088V16.5164H26.591V15.0183H25.7088V11.8319H24.1195V15.0183H21.2221L24.9712 7.07905H23.1993L19.4958 15.0183V16.5164Z" fill="#808084"/>
<path d="M3.16699 24.6665H46.667M46.667 27.9998H3.16699" stroke="#808084" stroke-width="0.956667"/>
<path d="M18.167 46.6998V36.3998C18.167 36.0727 18.2918 35.759 18.514 35.5277C18.7362 35.2964 19.0375 35.1665 19.3517 35.1665H30.7573C31.0715 35.1665 31.3729 35.2964 31.595 35.5277C31.8172 35.759 31.942 36.0727 31.942 36.3998V46.6998" stroke="#808084" stroke-width="0.956897"/>
</svg>
