<svg width="51" height="50" viewBox="0 0 51 50" fill="none" xmlns="http://www.w3.org/2000/svg">
<path d="M25.8914 42.5314C35.586 42.5314 43.445 34.6724 43.445 24.9778C43.445 15.2833 35.586 7.42428 25.8914 7.42428C16.1968 7.42428 8.33785 15.2833 8.33785 24.9778C8.33785 34.6724 16.1968 42.5314 25.8914 42.5314ZM46.2287 24.9778C46.2287 36.2099 37.1234 45.3151 25.8914 45.3151C14.6594 45.3151 5.55409 36.2099 5.55409 24.9778C5.55409 13.7458 14.6594 4.64052 25.8914 4.64052C37.1234 4.64052 46.2287 13.7458 46.2287 24.9778Z" stroke="#808084" stroke-width="0.955835"/>
<path d="M24.4209 30.494H20.7511V28.3398H24.4209V27.1032H20.7511V24.9493H23.6031L19.335 18.3677H22.8651L25.9365 23.5332L29.028 18.3677H32.4584L28.1505 24.9493H31.0424V27.1032H27.3726V28.3398H31.0424V30.494H27.3726V32.3289H24.4209V30.494Z" fill="#808084"/>
</svg>
