<svg width="50" height="50" viewBox="0 0 50 50" fill="none" xmlns="http://www.w3.org/2000/svg">
<path d="M13.4887 19.3021L13.4887 22.5169C13.4887 22.6929 13.6314 22.8355 13.8074 22.8355L17.0001 22.8355C17.1761 22.8355 17.3187 22.6929 17.3187 22.5169L17.3187 19.3021C17.3187 19.1261 17.1761 18.9834 17.0001 18.9834L13.8074 18.9834C13.6314 18.9834 13.4887 19.1261 13.4887 19.3021Z" fill="#808084"/>
<path d="M23.0637 19.3021L23.0637 22.5169C23.0637 22.6929 23.2064 22.8355 23.3824 22.8355L26.5751 22.8355C26.7511 22.8355 26.8937 22.6929 26.8937 22.5169L26.8937 19.3021C26.8937 19.1261 26.7511 18.9834 26.5751 18.9834L23.3824 18.9834C23.2064 18.9834 23.0637 19.1261 23.0637 19.3021Z" fill="#808084"/>
<path d="M32.6387 19.3021L32.6387 22.5169C32.6387 22.6929 32.7814 22.8355 32.9574 22.8355L36.1501 22.8355C36.3261 22.8355 36.4687 22.6929 36.4687 22.5169L36.4687 19.3021C36.4687 19.1261 36.3261 18.9834 36.1501 18.9834L32.9574 18.9834C32.7814 18.9834 32.6387 19.1261 32.6387 19.3021Z" fill="#808084"/>
<path d="M13.4887 27.273L13.4887 30.4878C13.4887 30.6638 13.6314 30.8064 13.8074 30.8064L17.0001 30.8064C17.1761 30.8064 17.3187 30.6638 17.3187 30.4878L17.3187 27.273C17.3187 27.097 17.1761 26.9543 17.0001 26.9543L13.8074 26.9543C13.6314 26.9543 13.4887 27.097 13.4887 27.273Z" fill="#808084"/>
<path d="M23.0637 27.273L23.0637 30.4878C23.0637 30.6638 23.2064 30.8064 23.3824 30.8064L26.5751 30.8064C26.7511 30.8064 26.8937 30.6638 26.8937 30.4878L26.8937 27.273C26.8937 27.097 26.7511 26.9543 26.5751 26.9543L23.3824 26.9543C23.2064 26.9543 23.0637 27.097 23.0637 27.273Z" fill="#808084"/>
<path d="M32.6387 27.273L32.6387 30.4878C32.6387 30.6638 32.7814 30.8064 32.9574 30.8064L36.1501 30.8064C36.3261 30.8064 36.4687 30.6638 36.4687 30.4878L36.4687 27.273C36.4687 27.097 36.3261 26.9543 36.1501 26.9543L32.9574 26.9543C32.7814 26.9543 32.6387 27.097 32.6387 27.273Z" fill="#808084"/>
<path d="M43.2959 46.4592V6.99352C43.2959 5.15417 41.8048 3.66309 39.9655 3.66309H9.99157C8.15222 3.66309 6.66113 5.15417 6.66113 6.99352V46.4592" stroke="#808084" stroke-width="0.955835"/>
<path d="M19.8164 46.4924V37.8665C19.8164 37.5397 19.9411 37.2263 20.1631 36.9952C20.3851 36.7641 20.6862 36.6343 21.0001 36.6343H29.0653C29.3793 36.6343 29.6804 36.7641 29.9023 36.9952C30.1243 37.2263 30.249 37.5397 30.249 37.8665V46.4924" stroke="#808084" stroke-width="0.955835"/>
<g clip-path="url(#clip0)">
<path fill-rule="evenodd" clip-rule="evenodd" d="M18.8339 10.7083C18.8839 10.625 18.9338 10.5251 18.9671 10.4252C19.0004 10.3253 19.0171 10.2087 19.0171 10.0755V10.0588C19.0171 9.74243 18.9172 9.47599 18.7007 9.25952C18.4343 8.99308 18.018 8.85986 17.4851 8.85986H15.3203V13.5225H17.5351C17.8015 13.5225 18.0346 13.4892 18.2511 13.4392C18.4676 13.3893 18.6507 13.306 18.8006 13.2061C18.9505 13.1062 19.0671 12.973 19.1503 12.8064C19.2336 12.6399 19.2835 12.4567 19.2835 12.2403V12.2236C19.2835 11.9072 19.2003 11.6741 19.0504 11.4909C18.9005 11.3077 18.6841 11.1745 18.4176 11.0746C18.5009 11.0246 18.5841 10.9747 18.6507 10.9081C18.7174 10.8581 18.784 10.7915 18.8339 10.7083ZM16.3194 9.75908H17.3352C17.5517 9.75908 17.7182 9.80904 17.8348 9.8923C17.9514 9.97556 18.0013 10.0921 18.0013 10.242V10.2586C18.0013 10.4252 17.9347 10.5584 17.8015 10.6416C17.6683 10.7249 17.4851 10.7582 17.2686 10.7582H16.3194V9.75908ZM18.2677 12.1237C18.2677 12.2902 18.2011 12.4234 18.0679 12.5067C17.9347 12.59 17.7682 12.6233 17.5351 12.6233H16.3194V11.5908H17.5017C17.7682 11.5908 17.968 11.6408 18.0846 11.724C18.2011 11.824 18.2677 11.9405 18.2677 12.1237Z" fill="#808084"/>
<path fill-rule="evenodd" clip-rule="evenodd" d="M23.1638 12.4725L23.5968 13.5216H24.6625L22.6642 8.82568H21.7151L19.7168 13.5216H20.7659L21.1988 12.4725H23.1638ZM22.1813 10.0579L22.7975 11.5733H21.5652L22.1813 10.0579Z" fill="#808084"/>
<path fill-rule="evenodd" clip-rule="evenodd" d="M30.6572 8.85889V13.5215H31.673V12.0894L32.2225 11.5399L33.6546 13.5215H34.8869L32.9053 10.8405L34.8036 8.85889H33.5714L31.673 10.8905V8.85889H30.6572Z" fill="#808084"/>
<path fill-rule="evenodd" clip-rule="evenodd" d="M28.6584 13.5215H29.5243V8.85889H28.5251V11.7231L26.3271 8.85889H25.3945V13.5215H26.3937V10.5574L28.6584 13.5215Z" fill="#808084"/>
</g>
<defs>
<clipPath id="clip0">
<rect width="19.5663" height="4.69591" fill="white" transform="translate(15.3203 8.82568)"/>
</clipPath>
</defs>
</svg>
