<svg width="30" height="30" viewBox="0 0 30 30" fill="none" xmlns="http://www.w3.org/2000/svg">
<path d="M9.44022 28C20.7517 28 26.9412 17.9891 26.9412 9.3224C26.9412 9.04076 26.9412 8.75913 26.9292 8.47749C28.1287 7.54297 29.1723 6.39082 30 5.08505C28.8725 5.60992 27.6849 5.96837 26.4614 6.12199C27.7449 5.30268 28.7045 4.00971 29.1603 2.48632C27.9488 3.25442 26.6293 3.79209 25.2499 4.07372C22.9228 1.42378 19.0244 1.29577 16.5414 3.79209C14.946 5.39229 14.2623 7.7862 14.7661 10.0649C9.82407 9.79606 5.20592 7.31254 2.08717 3.20321C0.455818 6.1988 1.28349 10.0393 3.9944 11.9723C3.0108 11.9467 2.06317 11.6651 1.19952 11.153C1.19952 11.1786 1.19952 11.2042 1.19952 11.2298C1.19952 14.3534 3.26269 17.0418 6.14154 17.6691C5.22991 17.9379 4.28229 17.9763 3.35866 17.7843C4.16233 20.4598 6.47741 22.2905 9.10436 22.3417C6.92123 24.1723 4.23431 25.158 1.46341 25.158C0.971611 25.158 0.479808 25.1196 0 25.0684C2.83087 26.9759 6.09356 28 9.44022 28Z" fill="#26262A"/>
</svg>
